<?xml version="1.0" encoding="us-ascii" standalone="no"?><svg xmlns="http://www.w3.org/2000/svg" xmlns:xlink="http://www.w3.org/1999/xlink" contentStyleType="text/css" height="1946px" preserveAspectRatio="none" style="width:656px;height:1946px;background:#FFFFFF;" version="1.1" viewBox="0 0 656 1946" width="656px" zoomAndPan="magnify"><defs/><g><text fill="#000000" font-family="sans-serif" font-size="14" font-weight="bold" lengthAdjust="spacing" textLength="274" x="187.25" y="29.5332">Admin User Flow with Alternative Paths</text><rect fill="none" height="1574.0547" style="stroke:#000000;stroke-width:1.5;" width="629.5" x="10" y="273.625"/><rect fill="none" height="355.5391" style="stroke:#000000;stroke-width:1.5;" width="609.5" x="20" y="601.9766"/><rect fill="none" height="216.2969" style="stroke:#000000;stroke-width:1.5;" width="589.5" x="30" y="734.2188"/><rect fill="none" height="216.2969" style="stroke:#000000;stroke-width:1.5;" width="589.5" x="30" y="1258.6797"/><rect fill="none" height="216.2969" style="stroke:#000000;stroke-width:1.5;" width="589.5" x="30" y="1624.3828"/><line style="stroke:#181818;stroke-width:0.5;stroke-dasharray:5.0,5.0;" x1="62" x2="62" y1="121.2188" y2="1864.6797"/><line style="stroke:#181818;stroke-width:0.5;stroke-dasharray:5.0,5.0;" x1="264.5" x2="264.5" y1="121.2188" y2="1864.6797"/><line style="stroke:#181818;stroke-width:0.5;stroke-dasharray:5.0,5.0;" x1="419" x2="419" y1="121.2188" y2="1864.6797"/><line style="stroke:#181818;stroke-width:0.5;stroke-dasharray:5.0,5.0;" x1="591.5" x2="591.5" y1="121.2188" y2="1864.6797"/><text fill="#000000" font-family="sans-serif" font-size="14" lengthAdjust="spacing" textLength="39" x="40" y="118.1426">Admin</text><ellipse cx="62.5" cy="52.1094" fill="#E2E2F0" rx="8" ry="8" style="stroke:#181818;stroke-width:0.5;"/><path d="M62.5,60.1094 L62.5,87.1094 M49.5,68.1094 L75.5,68.1094 M62.5,87.1094 L49.5,102.1094 M62.5,87.1094 L75.5,102.1094 " fill="none" style="stroke:#181818;stroke-width:0.5;"/><text fill="#000000" font-family="sans-serif" font-size="14" lengthAdjust="spacing" textLength="39" x="40" y="1878.2129">Admin</text><ellipse cx="62.5" cy="1889.7891" fill="#E2E2F0" rx="8" ry="8" style="stroke:#181818;stroke-width:0.5;"/><path d="M62.5,1897.7891 L62.5,1924.7891 M49.5,1905.7891 L75.5,1905.7891 M62.5,1924.7891 L49.5,1939.7891 M62.5,1924.7891 L75.5,1939.7891 " fill="none" style="stroke:#181818;stroke-width:0.5;"/><rect fill="#E2E2F0" height="31.6094" rx="2.5" ry="2.5" style="stroke:#181818;stroke-width:0.5;" width="88" x="220.5" y="88.6094"/><text fill="#000000" font-family="sans-serif" font-size="14" lengthAdjust="spacing" textLength="74" x="227.5" y="110.1426">Frontend UI</text><rect fill="#E2E2F0" height="31.6094" rx="2.5" ry="2.5" style="stroke:#181818;stroke-width:0.5;" width="88" x="220.5" y="1863.6797"/><text fill="#000000" font-family="sans-serif" font-size="14" lengthAdjust="spacing" textLength="74" x="227.5" y="1885.2129">Frontend UI</text><rect fill="#E2E2F0" height="31.6094" rx="2.5" ry="2.5" style="stroke:#181818;stroke-width:0.5;" width="119" x="360" y="88.6094"/><text fill="#000000" font-family="sans-serif" font-size="14" lengthAdjust="spacing" textLength="105" x="367" y="110.1426">Backend System</text><rect fill="#E2E2F0" height="31.6094" rx="2.5" ry="2.5" style="stroke:#181818;stroke-width:0.5;" width="119" x="360" y="1863.6797"/><text fill="#000000" font-family="sans-serif" font-size="14" lengthAdjust="spacing" textLength="105" x="367" y="1885.2129">Backend System</text><text fill="#000000" font-family="sans-serif" font-size="14" lengthAdjust="spacing" textLength="19" x="579" y="118.1426">DB</text><path d="M573.5,67.6094 C573.5,57.6094 591.5,57.6094 591.5,57.6094 C591.5,57.6094 609.5,57.6094 609.5,67.6094 L609.5,93.6094 C609.5,103.6094 591.5,103.6094 591.5,103.6094 C591.5,103.6094 573.5,103.6094 573.5,93.6094 L573.5,67.6094 " fill="#E2E2F0" style="stroke:#181818;stroke-width:1.5;"/><path d="M573.5,67.6094 C573.5,77.6094 591.5,77.6094 591.5,77.6094 C591.5,77.6094 609.5,77.6094 609.5,67.6094 " fill="none" style="stroke:#181818;stroke-width:1.5;"/><text fill="#000000" font-family="sans-serif" font-size="14" lengthAdjust="spacing" textLength="19" x="579" y="1878.2129">DB</text><path d="M573.5,1891.2891 C573.5,1881.2891 591.5,1881.2891 591.5,1881.2891 C591.5,1881.2891 609.5,1881.2891 609.5,1891.2891 L609.5,1917.2891 C609.5,1927.2891 591.5,1927.2891 591.5,1927.2891 C591.5,1927.2891 573.5,1927.2891 573.5,1917.2891 L573.5,1891.2891 " fill="#E2E2F0" style="stroke:#181818;stroke-width:1.5;"/><path d="M573.5,1891.2891 C573.5,1901.2891 591.5,1901.2891 591.5,1901.2891 C591.5,1901.2891 609.5,1901.2891 609.5,1891.2891 " fill="none" style="stroke:#181818;stroke-width:1.5;"/><rect fill="#EEEEEE" height="3" style="stroke:#EEEEEE;stroke-width:1.0;" width="649.5" x="0" y="152.3945"/><line style="stroke:#000000;stroke-width:1.0;" x1="0" x2="649.5" y1="152.3945" y2="152.3945"/><line style="stroke:#000000;stroke-width:1.0;" x1="0" x2="649.5" y1="155.3945" y2="155.3945"/><rect fill="#EEEEEE" height="24.3516" style="stroke:#000000;stroke-width:2.0;" width="110" x="269.75" y="141.2188"/><text fill="#000000" font-family="sans-serif" font-size="13" font-weight="bold" lengthAdjust="spacing" textLength="92" x="275.75" y="158.7139">Authentication</text><polygon fill="#181818" points="252.5,193.9219,262.5,197.9219,252.5,201.9219,256.5,197.9219" style="stroke:#181818;stroke-width:1.0;"/><line style="stroke:#181818;stroke-width:1.0;" x1="62.5" x2="258.5" y1="197.9219" y2="197.9219"/><text fill="#000000" font-family="sans-serif" font-size="13" lengthAdjust="spacing" textLength="98" x="69.5" y="193.0654">Enter credentials</text><polygon fill="#181818" points="407.5,224.2734,417.5,228.2734,407.5,232.2734,411.5,228.2734" style="stroke:#181818;stroke-width:1.0;"/><line style="stroke:#181818;stroke-width:1.0;" x1="264.5" x2="413.5" y1="228.2734" y2="228.2734"/><text fill="#000000" font-family="sans-serif" font-size="13" lengthAdjust="spacing" textLength="108" x="271.5" y="223.417">Send login request</text><polygon fill="#181818" points="579.5,254.625,589.5,258.625,579.5,262.625,583.5,258.625" style="stroke:#181818;stroke-width:1.0;"/><line style="stroke:#181818;stroke-width:1.0;" x1="419.5" x2="585.5" y1="258.625" y2="258.625"/><text fill="#000000" font-family="sans-serif" font-size="13" lengthAdjust="spacing" textLength="136" x="426.5" y="253.7686">Validate admin account</text><path d="M10,273.625 L71,273.625 L71,281.9766 L61,291.9766 L10,291.9766 L10,273.625 " fill="#EEEEEE" style="stroke:#000000;stroke-width:1.5;"/><rect fill="none" height="1574.0547" style="stroke:#000000;stroke-width:1.5;" width="629.5" x="10" y="273.625"/><text fill="#000000" font-family="sans-serif" font-size="13" font-weight="bold" lengthAdjust="spacing" textLength="16" x="25" y="288.1201">alt</text><text fill="#000000" font-family="sans-serif" font-size="11" font-weight="bold" lengthAdjust="spacing" textLength="108" x="86" y="287.0439">[Invalid credentials]</text><polygon fill="#181818" points="430.5,310.3281,420.5,314.3281,430.5,318.3281,426.5,314.3281" style="stroke:#181818;stroke-width:1.0;"/><line style="stroke:#181818;stroke-width:1.0;stroke-dasharray:2.0,2.0;" x1="424.5" x2="590.5" y1="314.3281" y2="314.3281"/><text fill="#000000" font-family="sans-serif" font-size="13" lengthAdjust="spacing" textLength="112" x="436.5" y="309.4717">No matching admin</text><polygon fill="#181818" points="275.5,340.6797,265.5,344.6797,275.5,348.6797,271.5,344.6797" style="stroke:#181818;stroke-width:1.0;"/><line style="stroke:#181818;stroke-width:1.0;stroke-dasharray:2.0,2.0;" x1="269.5" x2="418.5" y1="344.6797" y2="344.6797"/><text fill="#000000" font-family="sans-serif" font-size="13" lengthAdjust="spacing" textLength="65" x="281.5" y="339.8232">Login failed</text><polygon fill="#181818" points="73.5,371.0313,63.5,375.0313,73.5,379.0313,69.5,375.0313" style="stroke:#181818;stroke-width:1.0;"/><line style="stroke:#181818;stroke-width:1.0;stroke-dasharray:2.0,2.0;" x1="67.5" x2="263.5" y1="375.0313" y2="375.0313"/><text fill="#000000" font-family="sans-serif" font-size="13" lengthAdjust="spacing" textLength="119" x="79.5" y="370.1748">Show error message</text><line style="stroke:#000000;stroke-width:1.0;stroke-dasharray:2.0,2.0;" x1="10" x2="639.5" y1="384.0313" y2="384.0313"/><text fill="#000000" font-family="sans-serif" font-size="11" font-weight="bold" lengthAdjust="spacing" textLength="100" x="15" y="395.4502">[Valid credentials]</text><polygon fill="#181818" points="430.5,417.2188,420.5,421.2188,430.5,425.2188,426.5,421.2188" style="stroke:#181818;stroke-width:1.0;"/><line style="stroke:#181818;stroke-width:1.0;stroke-dasharray:2.0,2.0;" x1="424.5" x2="590.5" y1="421.2188" y2="421.2188"/><text fill="#000000" font-family="sans-serif" font-size="13" lengthAdjust="spacing" textLength="112" x="436.5" y="416.3623">Admin record found</text><polygon fill="#181818" points="275.5,447.5703,265.5,451.5703,275.5,455.5703,271.5,451.5703" style="stroke:#181818;stroke-width:1.0;"/><line style="stroke:#181818;stroke-width:1.0;stroke-dasharray:2.0,2.0;" x1="269.5" x2="418.5" y1="451.5703" y2="451.5703"/><text fill="#000000" font-family="sans-serif" font-size="13" lengthAdjust="spacing" textLength="84" x="281.5" y="446.7139">Login success</text><polygon fill="#181818" points="73.5,477.9219,63.5,481.9219,73.5,485.9219,69.5,481.9219" style="stroke:#181818;stroke-width:1.0;"/><line style="stroke:#181818;stroke-width:1.0;stroke-dasharray:2.0,2.0;" x1="67.5" x2="263.5" y1="481.9219" y2="481.9219"/><text fill="#000000" font-family="sans-serif" font-size="13" lengthAdjust="spacing" textLength="127" x="79.5" y="477.0654">Redirect to dashboard</text><rect fill="#EEEEEE" height="3" style="stroke:#EEEEEE;stroke-width:1.0;" width="649.5" x="0" y="511.0977"/><line style="stroke:#000000;stroke-width:1.0;" x1="0" x2="649.5" y1="511.0977" y2="511.0977"/><line style="stroke:#000000;stroke-width:1.0;" x1="0" x2="649.5" y1="514.0977" y2="514.0977"/><rect fill="#EEEEEE" height="24.3516" style="stroke:#000000;stroke-width:2.0;" width="108" x="270.75" y="499.9219"/><text fill="#000000" font-family="sans-serif" font-size="13" font-weight="bold" lengthAdjust="spacing" textLength="90" x="276.75" y="517.417">Manage Menu</text><polygon fill="#181818" points="252.5,552.625,262.5,556.625,252.5,560.625,256.5,556.625" style="stroke:#181818;stroke-width:1.0;"/><line style="stroke:#181818;stroke-width:1.0;" x1="62.5" x2="258.5" y1="556.625" y2="556.625"/><text fill="#000000" font-family="sans-serif" font-size="13" lengthAdjust="spacing" textLength="172" x="69.5" y="551.7686">Add / Edit / Delete menu item</text><polygon fill="#181818" points="407.5,582.9766,417.5,586.9766,407.5,590.9766,411.5,586.9766" style="stroke:#181818;stroke-width:1.0;"/><line style="stroke:#181818;stroke-width:1.0;" x1="264.5" x2="413.5" y1="586.9766" y2="586.9766"/><text fill="#000000" font-family="sans-serif" font-size="13" lengthAdjust="spacing" textLength="124" x="271.5" y="582.1201">Submit menu request</text><path d="M20,601.9766 L81,601.9766 L81,610.3281 L71,620.3281 L20,620.3281 L20,601.9766 " fill="#EEEEEE" style="stroke:#000000;stroke-width:1.5;"/><rect fill="none" height="355.5391" style="stroke:#000000;stroke-width:1.5;" width="609.5" x="20" y="601.9766"/><text fill="#000000" font-family="sans-serif" font-size="13" font-weight="bold" lengthAdjust="spacing" textLength="16" x="35" y="616.4717">alt</text><text fill="#000000" font-family="sans-serif" font-size="11" font-weight="bold" lengthAdjust="spacing" textLength="74" x="96" y="615.3955">[Invalid input]</text><polygon fill="#181818" points="275.5,638.6797,265.5,642.6797,275.5,646.6797,271.5,642.6797" style="stroke:#181818;stroke-width:1.0;"/><line style="stroke:#181818;stroke-width:1.0;stroke-dasharray:2.0,2.0;" x1="269.5" x2="418.5" y1="642.6797" y2="642.6797"/><text fill="#000000" font-family="sans-serif" font-size="13" lengthAdjust="spacing" textLength="91" x="281.5" y="637.8232">Validation failed</text><polygon fill="#181818" points="73.5,669.0313,63.5,673.0313,73.5,677.0313,69.5,673.0313" style="stroke:#181818;stroke-width:1.0;"/><line style="stroke:#181818;stroke-width:1.0;stroke-dasharray:2.0,2.0;" x1="67.5" x2="263.5" y1="673.0313" y2="673.0313"/><text fill="#000000" font-family="sans-serif" font-size="13" lengthAdjust="spacing" textLength="94" x="79.5" y="668.1748">Show input error</text><line style="stroke:#000000;stroke-width:1.0;stroke-dasharray:2.0,2.0;" x1="20" x2="629.5" y1="682.0313" y2="682.0313"/><text fill="#000000" font-family="sans-serif" font-size="11" font-weight="bold" lengthAdjust="spacing" textLength="66" x="25" y="693.4502">[Valid input]</text><polygon fill="#181818" points="579.5,715.2188,589.5,719.2188,579.5,723.2188,583.5,719.2188" style="stroke:#181818;stroke-width:1.0;"/><line style="stroke:#181818;stroke-width:1.0;" x1="419.5" x2="585.5" y1="719.2188" y2="719.2188"/><text fill="#000000" font-family="sans-serif" font-size="13" lengthAdjust="spacing" textLength="117" x="426.5" y="714.3623">Save menu changes</text><path d="M30,734.2188 L91,734.2188 L91,742.5703 L81,752.5703 L30,752.5703 L30,734.2188 " fill="#EEEEEE" style="stroke:#000000;stroke-width:1.5;"/><rect fill="none" height="216.2969" style="stroke:#000000;stroke-width:1.5;" width="589.5" x="30" y="734.2188"/><text fill="#000000" font-family="sans-serif" font-size="13" font-weight="bold" lengthAdjust="spacing" textLength="16" x="45" y="748.7139">alt</text><text fill="#000000" font-family="sans-serif" font-size="11" font-weight="bold" lengthAdjust="spacing" textLength="120" x="106" y="747.6377">[Database save failed]</text><polygon fill="#181818" points="430.5,770.9219,420.5,774.9219,430.5,778.9219,426.5,774.9219" style="stroke:#181818;stroke-width:1.0;"/><line style="stroke:#181818;stroke-width:1.0;stroke-dasharray:2.0,2.0;" x1="424.5" x2="590.5" y1="774.9219" y2="774.9219"/><text fill="#000000" font-family="sans-serif" font-size="13" lengthAdjust="spacing" textLength="58" x="436.5" y="770.0654">Save error</text><polygon fill="#181818" points="275.5,801.2734,265.5,805.2734,275.5,809.2734,271.5,805.2734" style="stroke:#181818;stroke-width:1.0;"/><line style="stroke:#181818;stroke-width:1.0;stroke-dasharray:2.0,2.0;" x1="269.5" x2="418.5" y1="805.2734" y2="805.2734"/><text fill="#000000" font-family="sans-serif" font-size="13" lengthAdjust="spacing" textLength="90" x="281.5" y="800.417">Operation failed</text><polygon fill="#181818" points="73.5,831.625,63.5,835.625,73.5,839.625,69.5,835.625" style="stroke:#181818;stroke-width:1.0;"/><line style="stroke:#181818;stroke-width:1.0;stroke-dasharray:2.0,2.0;" x1="67.5" x2="263.5" y1="835.625" y2="835.625"/><text fill="#000000" font-family="sans-serif" font-size="13" lengthAdjust="spacing" textLength="127" x="79.5" y="830.7686">Show failure message</text><line style="stroke:#000000;stroke-width:1.0;stroke-dasharray:2.0,2.0;" x1="30" x2="619.5" y1="844.625" y2="844.625"/><text fill="#000000" font-family="sans-serif" font-size="11" font-weight="bold" lengthAdjust="spacing" textLength="98" x="35" y="856.0439">[Save successful]</text><polygon fill="#181818" points="430.5,877.8125,420.5,881.8125,430.5,885.8125,426.5,881.8125" style="stroke:#181818;stroke-width:1.0;"/><line style="stroke:#181818;stroke-width:1.0;stroke-dasharray:2.0,2.0;" x1="424.5" x2="590.5" y1="881.8125" y2="881.8125"/><text fill="#000000" font-family="sans-serif" font-size="13" lengthAdjust="spacing" textLength="82" x="436.5" y="876.9561">Menu updated</text><polygon fill="#181818" points="275.5,908.1641,265.5,912.1641,275.5,916.1641,271.5,912.1641" style="stroke:#181818;stroke-width:1.0;"/><line style="stroke:#181818;stroke-width:1.0;stroke-dasharray:2.0,2.0;" x1="269.5" x2="418.5" y1="912.1641" y2="912.1641"/><text fill="#000000" font-family="sans-serif" font-size="13" lengthAdjust="spacing" textLength="122" x="281.5" y="907.3076">Operation successful</text><polygon fill="#181818" points="73.5,938.5156,63.5,942.5156,73.5,946.5156,69.5,942.5156" style="stroke:#181818;stroke-width:1.0;"/><line style="stroke:#181818;stroke-width:1.0;stroke-dasharray:2.0,2.0;" x1="67.5" x2="263.5" y1="942.5156" y2="942.5156"/><text fill="#000000" font-family="sans-serif" font-size="13" lengthAdjust="spacing" textLength="101" x="79.5" y="937.6592">Refresh menu list</text><rect fill="#EEEEEE" height="3" style="stroke:#EEEEEE;stroke-width:1.0;" width="649.5" x="0" y="985.6914"/><line style="stroke:#000000;stroke-width:1.0;" x1="0" x2="649.5" y1="985.6914" y2="985.6914"/><line style="stroke:#000000;stroke-width:1.0;" x1="0" x2="649.5" y1="988.6914" y2="988.6914"/><rect fill="#EEEEEE" height="24.3516" style="stroke:#000000;stroke-width:2.0;" width="115" x="267.25" y="974.5156"/><text fill="#000000" font-family="sans-serif" font-size="13" font-weight="bold" lengthAdjust="spacing" textLength="97" x="273.25" y="992.0107">Manage Orders</text><polygon fill="#181818" points="252.5,1027.2188,262.5,1031.2188,252.5,1035.2188,256.5,1031.2188" style="stroke:#181818;stroke-width:1.0;"/><line style="stroke:#181818;stroke-width:1.0;" x1="62.5" x2="258.5" y1="1031.2188" y2="1031.2188"/><text fill="#000000" font-family="sans-serif" font-size="13" lengthAdjust="spacing" textLength="126" x="69.5" y="1026.3623">View customer orders</text><polygon fill="#181818" points="407.5,1057.5703,417.5,1061.5703,407.5,1065.5703,411.5,1061.5703" style="stroke:#181818;stroke-width:1.0;"/><line style="stroke:#181818;stroke-width:1.0;" x1="264.5" x2="413.5" y1="1061.5703" y2="1061.5703"/><text fill="#000000" font-family="sans-serif" font-size="13" lengthAdjust="spacing" textLength="102" x="271.5" y="1056.7139">Request order list</text><polygon fill="#181818" points="579.5,1087.9219,589.5,1091.9219,579.5,1095.9219,583.5,1091.9219" style="stroke:#181818;stroke-width:1.0;"/><line style="stroke:#181818;stroke-width:1.0;" x1="419.5" x2="585.5" y1="1091.9219" y2="1091.9219"/><text fill="#000000" font-family="sans-serif" font-size="13" lengthAdjust="spacing" textLength="73" x="426.5" y="1087.0654">Fetch orders</text><polygon fill="#181818" points="430.5,1118.2734,420.5,1122.2734,430.5,1126.2734,426.5,1122.2734" style="stroke:#181818;stroke-width:1.0;"/><line style="stroke:#181818;stroke-width:1.0;stroke-dasharray:2.0,2.0;" x1="424.5" x2="590.5" y1="1122.2734" y2="1122.2734"/><text fill="#000000" font-family="sans-serif" font-size="13" lengthAdjust="spacing" textLength="78" x="436.5" y="1117.417">Return orders</text><polygon fill="#181818" points="275.5,1148.625,265.5,1152.625,275.5,1156.625,271.5,1152.625" style="stroke:#181818;stroke-width:1.0;"/><line style="stroke:#181818;stroke-width:1.0;stroke-dasharray:2.0,2.0;" x1="269.5" x2="418.5" y1="1152.625" y2="1152.625"/><text fill="#000000" font-family="sans-serif" font-size="13" lengthAdjust="spacing" textLength="83" x="281.5" y="1147.7686">Display orders</text><polygon fill="#181818" points="252.5,1178.9766,262.5,1182.9766,252.5,1186.9766,256.5,1182.9766" style="stroke:#181818;stroke-width:1.0;"/><line style="stroke:#181818;stroke-width:1.0;" x1="62.5" x2="258.5" y1="1182.9766" y2="1182.9766"/><text fill="#000000" font-family="sans-serif" font-size="13" lengthAdjust="spacing" textLength="178" x="69.5" y="1178.1201">Select order and update status</text><polygon fill="#181818" points="407.5,1209.3281,417.5,1213.3281,407.5,1217.3281,411.5,1213.3281" style="stroke:#181818;stroke-width:1.0;"/><line style="stroke:#181818;stroke-width:1.0;" x1="264.5" x2="413.5" y1="1213.3281" y2="1213.3281"/><text fill="#000000" font-family="sans-serif" font-size="13" lengthAdjust="spacing" textLength="124" x="271.5" y="1208.4717">Submit status update</text><polygon fill="#181818" points="579.5,1239.6797,589.5,1243.6797,579.5,1247.6797,583.5,1243.6797" style="stroke:#181818;stroke-width:1.0;"/><line style="stroke:#181818;stroke-width:1.0;" x1="419.5" x2="585.5" y1="1243.6797" y2="1243.6797"/><text fill="#000000" font-family="sans-serif" font-size="13" lengthAdjust="spacing" textLength="148" x="426.5" y="1238.8232">Validate and update order</text><path d="M30,1258.6797 L91,1258.6797 L91,1267.0313 L81,1277.0313 L30,1277.0313 L30,1258.6797 " fill="#EEEEEE" style="stroke:#000000;stroke-width:1.5;"/><rect fill="none" height="216.2969" style="stroke:#000000;stroke-width:1.5;" width="589.5" x="30" y="1258.6797"/><text fill="#000000" font-family="sans-serif" font-size="13" font-weight="bold" lengthAdjust="spacing" textLength="16" x="45" y="1273.1748">alt</text><text fill="#000000" font-family="sans-serif" font-size="11" font-weight="bold" lengthAdjust="spacing" textLength="137" x="106" y="1272.0986">[Invalid status transition]</text><polygon fill="#181818" points="430.5,1295.3828,420.5,1299.3828,430.5,1303.3828,426.5,1299.3828" style="stroke:#181818;stroke-width:1.0;"/><line style="stroke:#181818;stroke-width:1.0;stroke-dasharray:2.0,2.0;" x1="424.5" x2="590.5" y1="1299.3828" y2="1299.3828"/><text fill="#000000" font-family="sans-serif" font-size="13" lengthAdjust="spacing" textLength="91" x="436.5" y="1294.5264">Update rejected</text><polygon fill="#181818" points="275.5,1325.7344,265.5,1329.7344,275.5,1333.7344,271.5,1329.7344" style="stroke:#181818;stroke-width:1.0;"/><line style="stroke:#181818;stroke-width:1.0;stroke-dasharray:2.0,2.0;" x1="269.5" x2="418.5" y1="1329.7344" y2="1329.7344"/><text fill="#000000" font-family="sans-serif" font-size="13" lengthAdjust="spacing" textLength="115" x="281.5" y="1324.8779">Status update failed</text><polygon fill="#181818" points="73.5,1356.0859,63.5,1360.0859,73.5,1364.0859,69.5,1360.0859" style="stroke:#181818;stroke-width:1.0;"/><line style="stroke:#181818;stroke-width:1.0;stroke-dasharray:2.0,2.0;" x1="67.5" x2="263.5" y1="1360.0859" y2="1360.0859"/><text fill="#000000" font-family="sans-serif" font-size="13" lengthAdjust="spacing" textLength="168" x="79.5" y="1355.2295">Show invalid status message</text><line style="stroke:#000000;stroke-width:1.0;stroke-dasharray:2.0,2.0;" x1="30" x2="619.5" y1="1369.0859" y2="1369.0859"/><text fill="#000000" font-family="sans-serif" font-size="11" font-weight="bold" lengthAdjust="spacing" textLength="110" x="35" y="1380.5049">[Update successful]</text><polygon fill="#181818" points="430.5,1402.2734,420.5,1406.2734,430.5,1410.2734,426.5,1406.2734" style="stroke:#181818;stroke-width:1.0;"/><line style="stroke:#181818;stroke-width:1.0;stroke-dasharray:2.0,2.0;" x1="424.5" x2="590.5" y1="1406.2734" y2="1406.2734"/><text fill="#000000" font-family="sans-serif" font-size="13" lengthAdjust="spacing" textLength="82" x="436.5" y="1401.417">Order updated</text><polygon fill="#181818" points="275.5,1432.625,265.5,1436.625,275.5,1440.625,271.5,1436.625" style="stroke:#181818;stroke-width:1.0;"/><line style="stroke:#181818;stroke-width:1.0;stroke-dasharray:2.0,2.0;" x1="269.5" x2="418.5" y1="1436.625" y2="1436.625"/><text fill="#000000" font-family="sans-serif" font-size="13" lengthAdjust="spacing" textLength="88" x="281.5" y="1431.7686">Status updated</text><polygon fill="#181818" points="73.5,1462.9766,63.5,1466.9766,73.5,1470.9766,69.5,1466.9766" style="stroke:#181818;stroke-width:1.0;"/><line style="stroke:#181818;stroke-width:1.0;stroke-dasharray:2.0,2.0;" x1="67.5" x2="263.5" y1="1466.9766" y2="1466.9766"/><text fill="#000000" font-family="sans-serif" font-size="13" lengthAdjust="spacing" textLength="119" x="79.5" y="1462.1201">Refresh order details</text><rect fill="#EEEEEE" height="3" style="stroke:#EEEEEE;stroke-width:1.0;" width="649.5" x="0" y="1503.1523"/><line style="stroke:#000000;stroke-width:1.0;" x1="0" x2="649.5" y1="1503.1523" y2="1503.1523"/><line style="stroke:#000000;stroke-width:1.0;" x1="0" x2="649.5" y1="1506.1523" y2="1506.1523"/><rect fill="#EEEEEE" height="24.3516" style="stroke:#000000;stroke-width:2.0;" width="109" x="270.25" y="1491.9766"/><text fill="#000000" font-family="sans-serif" font-size="13" font-weight="bold" lengthAdjust="spacing" textLength="91" x="276.25" y="1509.4717">Search Orders</text><polygon fill="#181818" points="252.5,1544.6797,262.5,1548.6797,252.5,1552.6797,256.5,1548.6797" style="stroke:#181818;stroke-width:1.0;"/><line style="stroke:#181818;stroke-width:1.0;" x1="62.5" x2="258.5" y1="1548.6797" y2="1548.6797"/><text fill="#000000" font-family="sans-serif" font-size="13" lengthAdjust="spacing" textLength="152" x="69.5" y="1543.8232">Search order by ID or date</text><polygon fill="#181818" points="407.5,1575.0313,417.5,1579.0313,407.5,1583.0313,411.5,1579.0313" style="stroke:#181818;stroke-width:1.0;"/><line style="stroke:#181818;stroke-width:1.0;" x1="264.5" x2="413.5" y1="1579.0313" y2="1579.0313"/><text fill="#000000" font-family="sans-serif" font-size="13" lengthAdjust="spacing" textLength="131" x="271.5" y="1574.1748">Submit search request</text><polygon fill="#181818" points="579.5,1605.3828,589.5,1609.3828,579.5,1613.3828,583.5,1609.3828" style="stroke:#181818;stroke-width:1.0;"/><line style="stroke:#181818;stroke-width:1.0;" x1="419.5" x2="585.5" y1="1609.3828" y2="1609.3828"/><text fill="#000000" font-family="sans-serif" font-size="13" lengthAdjust="spacing" textLength="132" x="426.5" y="1604.5264">Query matching orders</text><path d="M30,1624.3828 L91,1624.3828 L91,1632.7344 L81,1642.7344 L30,1642.7344 L30,1624.3828 " fill="#EEEEEE" style="stroke:#000000;stroke-width:1.5;"/><rect fill="none" height="216.2969" style="stroke:#000000;stroke-width:1.5;" width="589.5" x="30" y="1624.3828"/><text fill="#000000" font-family="sans-serif" font-size="13" font-weight="bold" lengthAdjust="spacing" textLength="16" x="45" y="1638.8779">alt</text><text fill="#000000" font-family="sans-serif" font-size="11" font-weight="bold" lengthAdjust="spacing" textLength="145" x="106" y="1637.8018">[No matching order found]</text><polygon fill="#181818" points="430.5,1661.0859,420.5,1665.0859,430.5,1669.0859,426.5,1665.0859" style="stroke:#181818;stroke-width:1.0;"/><line style="stroke:#181818;stroke-width:1.0;stroke-dasharray:2.0,2.0;" x1="424.5" x2="590.5" y1="1665.0859" y2="1665.0859"/><text fill="#000000" font-family="sans-serif" font-size="13" lengthAdjust="spacing" textLength="59" x="436.5" y="1660.2295">No results</text><polygon fill="#181818" points="275.5,1691.4375,265.5,1695.4375,275.5,1699.4375,271.5,1695.4375" style="stroke:#181818;stroke-width:1.0;"/><line style="stroke:#181818;stroke-width:1.0;stroke-dasharray:2.0,2.0;" x1="269.5" x2="418.5" y1="1695.4375" y2="1695.4375"/><text fill="#000000" font-family="sans-serif" font-size="13" lengthAdjust="spacing" textLength="74" x="281.5" y="1690.5811">Empty result</text><polygon fill="#181818" points="73.5,1721.7891,63.5,1725.7891,73.5,1729.7891,69.5,1725.7891" style="stroke:#181818;stroke-width:1.0;"/><line style="stroke:#181818;stroke-width:1.0;stroke-dasharray:2.0,2.0;" x1="67.5" x2="263.5" y1="1725.7891" y2="1725.7891"/><text fill="#000000" font-family="sans-serif" font-size="13" lengthAdjust="spacing" textLength="137" x="79.5" y="1720.9326">Show "No orders found"</text><line style="stroke:#000000;stroke-width:1.0;stroke-dasharray:2.0,2.0;" x1="30" x2="619.5" y1="1734.7891" y2="1734.7891"/><text fill="#000000" font-family="sans-serif" font-size="11" font-weight="bold" lengthAdjust="spacing" textLength="82" x="35" y="1746.208">[Orders found]</text><polygon fill="#181818" points="430.5,1767.9766,420.5,1771.9766,430.5,1775.9766,426.5,1771.9766" style="stroke:#181818;stroke-width:1.0;"/><line style="stroke:#181818;stroke-width:1.0;stroke-dasharray:2.0,2.0;" x1="424.5" x2="590.5" y1="1771.9766" y2="1771.9766"/><text fill="#000000" font-family="sans-serif" font-size="13" lengthAdjust="spacing" textLength="93" x="436.5" y="1767.1201">Matching orders</text><polygon fill="#181818" points="275.5,1798.3281,265.5,1802.3281,275.5,1806.3281,271.5,1802.3281" style="stroke:#181818;stroke-width:1.0;"/><line style="stroke:#181818;stroke-width:1.0;stroke-dasharray:2.0,2.0;" x1="269.5" x2="418.5" y1="1802.3281" y2="1802.3281"/><text fill="#000000" font-family="sans-serif" font-size="13" lengthAdjust="spacing" textLength="81" x="281.5" y="1797.4717">Return results</text><polygon fill="#181818" points="73.5,1828.6797,63.5,1832.6797,73.5,1836.6797,69.5,1832.6797" style="stroke:#181818;stroke-width:1.0;"/><line style="stroke:#181818;stroke-width:1.0;stroke-dasharray:2.0,2.0;" x1="67.5" x2="263.5" y1="1832.6797" y2="1832.6797"/><text fill="#000000" font-family="sans-serif" font-size="13" lengthAdjust="spacing" textLength="140" x="79.5" y="1827.8232">Display matching orders</text><!--SRC=[ZLNHRjim37ptLn1vB_O-80CI90KAhEkMe7rNB2RM9ikUHAN8tu-Ix5XnxAu52WScVNVadMnIf15MibO6NXrQUDJDExmhgc2b2QqHfCu8FmLLhYX4IOrDtKKhBAbIjS8GB1vjOmYDXDUd1GZ7bzlwMfH_Gdb_SOHrR5bl2ob878H3sAoBOhc4bQSA3J_5f8s1vR8eahA7Rum8Ns7B91PAYpAq2UqAlit5zPQB-q2WcnFtM_phqL71zxcwMNFrJMZ5V0WY8egoRBmX7aaJF9bpgDu00__nWmyz-ey6Qa5bfSmfGSIEGD2B-nwfZq9fbB4Oj74nZS3wAjuiMiiRhD4vSS82DG__zb_kX62nRAo48-kMC-JEboL3Jx7lK2f68A06f73LeH5M5h6JD_yi3Ek1PpG-hZtSlbtzIahu0bkfY2yRrCYhh4ExOaElXBqL_b1pOwptNiIUVDlAj9xYtV4mdLSX0zawvrOQST9YOr-sr7kABWrxSUxabvKm9tJNfg1mq-VIXRQHXB4v4MfWdvhdfKKxESxSIA7DMxpcfE-DeqN2pkcZrxF2efc-3Q6Ndv0sWtWNewD5LwNTQUM6xMANod0TnUh5IhHk9bXl2j-Xz8wQcizs4rl7UTgb3ANgG9iP-eXyDlEdyqtiaBmrUJLVmKQvLejBNvwGkEUubpsxuBTCsYeu4kJTJFXJiMiTontUHWDQXBy_9XqEMM6S2auLKsQ_9WoBlrbfvdS-w3vNzBcJTICXJsDCOaSwaPnSMdJ_BeYpmcObzT5BDaWa7i3THMwFmd8IFenSrvE03XTusl1lkFequMLwe7-LZSpyvT5UXgz3dgDWPFxbI9J3AtpYAyCpUarkSb7RkgLBr_6XSmi6IZeIsM8mxIMxFQdXUJJ8b93kH8srZgJq9wkUG0oUXVz_]--></g></svg>