<?xml version="1.0" encoding="us-ascii" standalone="no"?><svg xmlns="http://www.w3.org/2000/svg" xmlns:xlink="http://www.w3.org/1999/xlink" contentStyleType="text/css" height="1882px" preserveAspectRatio="none" style="width:560px;height:1882px;background:#FFFFFF;" version="1.1" viewBox="0 0 560 1882" width="560px" zoomAndPan="magnify"><defs/><g><text fill="#000000" font-family="sans-serif" font-size="14" font-weight="bold" lengthAdjust="spacing" textLength="299" x="126.75" y="29.5332">Customer User Flow with Alternative Paths</text><rect fill="none" height="1509.5156" style="stroke:#000000;stroke-width:1.5;" width="533.5" x="10" y="273.625"/><rect fill="none" height="155.5938" style="stroke:#000000;stroke-width:1.5;" width="406" x="30" y="828.4375"/><rect fill="none" height="446.5938" style="stroke:#000000;stroke-width:1.5;" width="513.5" x="20" y="1103.0859"/><rect fill="none" height="216.2969" style="stroke:#000000;stroke-width:1.5;" width="493.5" x="30" y="1326.3828"/><line style="stroke:#181818;stroke-width:0.5;stroke-dasharray:5.0,5.0;" x1="73" x2="73" y1="121.2188" y2="1800.1406"/><line style="stroke:#181818;stroke-width:0.5;stroke-dasharray:5.0,5.0;" x1="221.5" x2="221.5" y1="121.2188" y2="1800.1406"/><line style="stroke:#181818;stroke-width:0.5;stroke-dasharray:5.0,5.0;" x1="366" x2="366" y1="121.2188" y2="1800.1406"/><line style="stroke:#181818;stroke-width:0.5;stroke-dasharray:5.0,5.0;" x1="495.5" x2="495.5" y1="121.2188" y2="1800.1406"/><text fill="#000000" font-family="sans-serif" font-size="14" lengthAdjust="spacing" textLength="61" x="40" y="118.1426">Customer</text><ellipse cx="73.5" cy="52.1094" fill="#E2E2F0" rx="8" ry="8" style="stroke:#181818;stroke-width:0.5;"/><path d="M73.5,60.1094 L73.5,87.1094 M60.5,68.1094 L86.5,68.1094 M73.5,87.1094 L60.5,102.1094 M73.5,87.1094 L86.5,102.1094 " fill="none" style="stroke:#181818;stroke-width:0.5;"/><text fill="#000000" font-family="sans-serif" font-size="14" lengthAdjust="spacing" textLength="61" x="40" y="1813.6738">Customer</text><ellipse cx="73.5" cy="1825.25" fill="#E2E2F0" rx="8" ry="8" style="stroke:#181818;stroke-width:0.5;"/><path d="M73.5,1833.25 L73.5,1860.25 M60.5,1841.25 L86.5,1841.25 M73.5,1860.25 L60.5,1875.25 M73.5,1860.25 L86.5,1875.25 " fill="none" style="stroke:#181818;stroke-width:0.5;"/><rect fill="#E2E2F0" height="31.6094" rx="2.5" ry="2.5" style="stroke:#181818;stroke-width:0.5;" width="88" x="177.5" y="88.6094"/><text fill="#000000" font-family="sans-serif" font-size="14" lengthAdjust="spacing" textLength="74" x="184.5" y="110.1426">Frontend UI</text><rect fill="#E2E2F0" height="31.6094" rx="2.5" ry="2.5" style="stroke:#181818;stroke-width:0.5;" width="88" x="177.5" y="1799.1406"/><text fill="#000000" font-family="sans-serif" font-size="14" lengthAdjust="spacing" textLength="74" x="184.5" y="1820.6738">Frontend UI</text><rect fill="#E2E2F0" height="31.6094" rx="2.5" ry="2.5" style="stroke:#181818;stroke-width:0.5;" width="119" x="307" y="88.6094"/><text fill="#000000" font-family="sans-serif" font-size="14" lengthAdjust="spacing" textLength="105" x="314" y="110.1426">Backend System</text><rect fill="#E2E2F0" height="31.6094" rx="2.5" ry="2.5" style="stroke:#181818;stroke-width:0.5;" width="119" x="307" y="1799.1406"/><text fill="#000000" font-family="sans-serif" font-size="14" lengthAdjust="spacing" textLength="105" x="314" y="1820.6738">Backend System</text><text fill="#000000" font-family="sans-serif" font-size="14" lengthAdjust="spacing" textLength="19" x="483" y="118.1426">DB</text><path d="M477.5,67.6094 C477.5,57.6094 495.5,57.6094 495.5,57.6094 C495.5,57.6094 513.5,57.6094 513.5,67.6094 L513.5,93.6094 C513.5,103.6094 495.5,103.6094 495.5,103.6094 C495.5,103.6094 477.5,103.6094 477.5,93.6094 L477.5,67.6094 " fill="#E2E2F0" style="stroke:#181818;stroke-width:1.5;"/><path d="M477.5,67.6094 C477.5,77.6094 495.5,77.6094 495.5,77.6094 C495.5,77.6094 513.5,77.6094 513.5,67.6094 " fill="none" style="stroke:#181818;stroke-width:1.5;"/><text fill="#000000" font-family="sans-serif" font-size="14" lengthAdjust="spacing" textLength="19" x="483" y="1813.6738">DB</text><path d="M477.5,1826.75 C477.5,1816.75 495.5,1816.75 495.5,1816.75 C495.5,1816.75 513.5,1816.75 513.5,1826.75 L513.5,1852.75 C513.5,1862.75 495.5,1862.75 495.5,1862.75 C495.5,1862.75 477.5,1862.75 477.5,1852.75 L477.5,1826.75 " fill="#E2E2F0" style="stroke:#181818;stroke-width:1.5;"/><path d="M477.5,1826.75 C477.5,1836.75 495.5,1836.75 495.5,1836.75 C495.5,1836.75 513.5,1836.75 513.5,1826.75 " fill="none" style="stroke:#181818;stroke-width:1.5;"/><rect fill="#EEEEEE" height="3" style="stroke:#EEEEEE;stroke-width:1.0;" width="553.5" x="0" y="152.3945"/><line style="stroke:#000000;stroke-width:1.0;" x1="0" x2="553.5" y1="152.3945" y2="152.3945"/><line style="stroke:#000000;stroke-width:1.0;" x1="0" x2="553.5" y1="155.3945" y2="155.3945"/><rect fill="#EEEEEE" height="24.3516" style="stroke:#000000;stroke-width:2.0;" width="110" x="221.75" y="141.2188"/><text fill="#000000" font-family="sans-serif" font-size="13" font-weight="bold" lengthAdjust="spacing" textLength="92" x="227.75" y="158.7139">Authentication</text><polygon fill="#181818" points="209.5,193.9219,219.5,197.9219,209.5,201.9219,213.5,197.9219" style="stroke:#181818;stroke-width:1.0;"/><line style="stroke:#181818;stroke-width:1.0;" x1="73.5" x2="215.5" y1="197.9219" y2="197.9219"/><text fill="#000000" font-family="sans-serif" font-size="13" lengthAdjust="spacing" textLength="98" x="80.5" y="193.0654">Enter credentials</text><polygon fill="#181818" points="354.5,224.2734,364.5,228.2734,354.5,232.2734,358.5,228.2734" style="stroke:#181818;stroke-width:1.0;"/><line style="stroke:#181818;stroke-width:1.0;" x1="221.5" x2="360.5" y1="228.2734" y2="228.2734"/><text fill="#000000" font-family="sans-serif" font-size="13" lengthAdjust="spacing" textLength="108" x="228.5" y="223.417">Send login request</text><polygon fill="#181818" points="483.5,254.625,493.5,258.625,483.5,262.625,487.5,258.625" style="stroke:#181818;stroke-width:1.0;"/><line style="stroke:#181818;stroke-width:1.0;" x1="366.5" x2="489.5" y1="258.625" y2="258.625"/><text fill="#000000" font-family="sans-serif" font-size="13" lengthAdjust="spacing" textLength="76" x="373.5" y="253.7686">Validate user</text><path d="M10,273.625 L71,273.625 L71,281.9766 L61,291.9766 L10,291.9766 L10,273.625 " fill="#EEEEEE" style="stroke:#000000;stroke-width:1.5;"/><rect fill="none" height="1509.5156" style="stroke:#000000;stroke-width:1.5;" width="533.5" x="10" y="273.625"/><text fill="#000000" font-family="sans-serif" font-size="13" font-weight="bold" lengthAdjust="spacing" textLength="16" x="25" y="288.1201">alt</text><text fill="#000000" font-family="sans-serif" font-size="11" font-weight="bold" lengthAdjust="spacing" textLength="108" x="86" y="287.0439">[Invalid credentials]</text><polygon fill="#181818" points="377.5,310.3281,367.5,314.3281,377.5,318.3281,373.5,314.3281" style="stroke:#181818;stroke-width:1.0;"/><line style="stroke:#181818;stroke-width:1.0;stroke-dasharray:2.0,2.0;" x1="371.5" x2="494.5" y1="314.3281" y2="314.3281"/><text fill="#000000" font-family="sans-serif" font-size="13" lengthAdjust="spacing" textLength="102" x="383.5" y="309.4717">No matching user</text><polygon fill="#181818" points="232.5,340.6797,222.5,344.6797,232.5,348.6797,228.5,344.6797" style="stroke:#181818;stroke-width:1.0;"/><line style="stroke:#181818;stroke-width:1.0;stroke-dasharray:2.0,2.0;" x1="226.5" x2="365.5" y1="344.6797" y2="344.6797"/><text fill="#000000" font-family="sans-serif" font-size="13" lengthAdjust="spacing" textLength="65" x="238.5" y="339.8232">Login failed</text><polygon fill="#181818" points="84.5,371.0313,74.5,375.0313,84.5,379.0313,80.5,375.0313" style="stroke:#181818;stroke-width:1.0;"/><line style="stroke:#181818;stroke-width:1.0;stroke-dasharray:2.0,2.0;" x1="78.5" x2="220.5" y1="375.0313" y2="375.0313"/><text fill="#000000" font-family="sans-serif" font-size="13" lengthAdjust="spacing" textLength="119" x="90.5" y="370.1748">Show error message</text><line style="stroke:#000000;stroke-width:1.0;stroke-dasharray:2.0,2.0;" x1="10" x2="543.5" y1="384.0313" y2="384.0313"/><text fill="#000000" font-family="sans-serif" font-size="11" font-weight="bold" lengthAdjust="spacing" textLength="100" x="15" y="395.4502">[Valid credentials]</text><polygon fill="#181818" points="377.5,417.2188,367.5,421.2188,377.5,425.2188,373.5,421.2188" style="stroke:#181818;stroke-width:1.0;"/><line style="stroke:#181818;stroke-width:1.0;stroke-dasharray:2.0,2.0;" x1="371.5" x2="494.5" y1="421.2188" y2="421.2188"/><text fill="#000000" font-family="sans-serif" font-size="13" lengthAdjust="spacing" textLength="102" x="383.5" y="416.3623">User record found</text><polygon fill="#181818" points="232.5,447.5703,222.5,451.5703,232.5,455.5703,228.5,451.5703" style="stroke:#181818;stroke-width:1.0;"/><line style="stroke:#181818;stroke-width:1.0;stroke-dasharray:2.0,2.0;" x1="226.5" x2="365.5" y1="451.5703" y2="451.5703"/><text fill="#000000" font-family="sans-serif" font-size="13" lengthAdjust="spacing" textLength="84" x="238.5" y="446.7139">Login success</text><polygon fill="#181818" points="84.5,477.9219,74.5,481.9219,84.5,485.9219,80.5,481.9219" style="stroke:#181818;stroke-width:1.0;"/><line style="stroke:#181818;stroke-width:1.0;stroke-dasharray:2.0,2.0;" x1="78.5" x2="220.5" y1="481.9219" y2="481.9219"/><text fill="#000000" font-family="sans-serif" font-size="13" lengthAdjust="spacing" textLength="99" x="90.5" y="477.0654">Redirect to menu</text><rect fill="#EEEEEE" height="3" style="stroke:#EEEEEE;stroke-width:1.0;" width="553.5" x="0" y="511.0977"/><line style="stroke:#000000;stroke-width:1.0;" x1="0" x2="553.5" y1="511.0977" y2="511.0977"/><line style="stroke:#000000;stroke-width:1.0;" x1="0" x2="553.5" y1="514.0977" y2="514.0977"/><rect fill="#EEEEEE" height="24.3516" style="stroke:#000000;stroke-width:2.0;" width="104" x="224.75" y="499.9219"/><text fill="#000000" font-family="sans-serif" font-size="13" font-weight="bold" lengthAdjust="spacing" textLength="86" x="230.75" y="517.417">Browse Menu</text><polygon fill="#181818" points="209.5,552.625,219.5,556.625,209.5,560.625,213.5,556.625" style="stroke:#181818;stroke-width:1.0;"/><line style="stroke:#181818;stroke-width:1.0;" x1="73.5" x2="215.5" y1="556.625" y2="556.625"/><text fill="#000000" font-family="sans-serif" font-size="13" lengthAdjust="spacing" textLength="64" x="80.5" y="551.7686">View menu</text><polygon fill="#181818" points="354.5,582.9766,364.5,586.9766,354.5,590.9766,358.5,586.9766" style="stroke:#181818;stroke-width:1.0;"/><line style="stroke:#181818;stroke-width:1.0;" x1="221.5" x2="360.5" y1="586.9766" y2="586.9766"/><text fill="#000000" font-family="sans-serif" font-size="13" lengthAdjust="spacing" textLength="113" x="228.5" y="582.1201">Request menu data</text><polygon fill="#181818" points="483.5,613.3281,493.5,617.3281,483.5,621.3281,487.5,617.3281" style="stroke:#181818;stroke-width:1.0;"/><line style="stroke:#181818;stroke-width:1.0;" x1="366.5" x2="489.5" y1="617.3281" y2="617.3281"/><text fill="#000000" font-family="sans-serif" font-size="13" lengthAdjust="spacing" textLength="105" x="373.5" y="612.4717">Fetch menu items</text><polygon fill="#181818" points="377.5,643.6797,367.5,647.6797,377.5,651.6797,373.5,647.6797" style="stroke:#181818;stroke-width:1.0;"/><line style="stroke:#181818;stroke-width:1.0;stroke-dasharray:2.0,2.0;" x1="371.5" x2="494.5" y1="647.6797" y2="647.6797"/><text fill="#000000" font-family="sans-serif" font-size="13" lengthAdjust="spacing" textLength="68" x="383.5" y="642.8232">Menu items</text><polygon fill="#181818" points="232.5,674.0313,222.5,678.0313,232.5,682.0313,228.5,678.0313" style="stroke:#181818;stroke-width:1.0;"/><line style="stroke:#181818;stroke-width:1.0;stroke-dasharray:2.0,2.0;" x1="226.5" x2="365.5" y1="678.0313" y2="678.0313"/><text fill="#000000" font-family="sans-serif" font-size="13" lengthAdjust="spacing" textLength="95" x="238.5" y="673.1748">Return menu list</text><polygon fill="#181818" points="84.5,704.3828,74.5,708.3828,84.5,712.3828,80.5,708.3828" style="stroke:#181818;stroke-width:1.0;"/><line style="stroke:#181818;stroke-width:1.0;stroke-dasharray:2.0,2.0;" x1="78.5" x2="220.5" y1="708.3828" y2="708.3828"/><text fill="#000000" font-family="sans-serif" font-size="13" lengthAdjust="spacing" textLength="79" x="90.5" y="703.5264">Display menu</text><rect fill="#EEEEEE" height="3" style="stroke:#EEEEEE;stroke-width:1.0;" width="553.5" x="0" y="737.5586"/><line style="stroke:#000000;stroke-width:1.0;" x1="0" x2="553.5" y1="737.5586" y2="737.5586"/><line style="stroke:#000000;stroke-width:1.0;" x1="0" x2="553.5" y1="740.5586" y2="740.5586"/><rect fill="#EEEEEE" height="24.3516" style="stroke:#000000;stroke-width:2.0;" width="89" x="232.25" y="726.3828"/><text fill="#000000" font-family="sans-serif" font-size="13" font-weight="bold" lengthAdjust="spacing" textLength="71" x="238.25" y="743.8779">Add to Cart</text><polygon fill="#181818" points="209.5,779.0859,219.5,783.0859,209.5,787.0859,213.5,783.0859" style="stroke:#181818;stroke-width:1.0;"/><line style="stroke:#181818;stroke-width:1.0;" x1="73.5" x2="215.5" y1="783.0859" y2="783.0859"/><text fill="#000000" font-family="sans-serif" font-size="13" lengthAdjust="spacing" textLength="93" x="80.5" y="778.2295">Add item to cart</text><polygon fill="#181818" points="354.5,809.4375,364.5,813.4375,354.5,817.4375,358.5,813.4375" style="stroke:#181818;stroke-width:1.0;"/><line style="stroke:#181818;stroke-width:1.0;" x1="221.5" x2="360.5" y1="813.4375" y2="813.4375"/><text fill="#000000" font-family="sans-serif" font-size="13" lengthAdjust="spacing" textLength="99" x="228.5" y="808.5811">Add item request</text><path d="M30,828.4375 L91,828.4375 L91,836.7891 L81,846.7891 L30,846.7891 L30,828.4375 " fill="#EEEEEE" style="stroke:#000000;stroke-width:1.5;"/><rect fill="none" height="155.5938" style="stroke:#000000;stroke-width:1.5;" width="406" x="30" y="828.4375"/><text fill="#000000" font-family="sans-serif" font-size="13" font-weight="bold" lengthAdjust="spacing" textLength="16" x="45" y="842.9326">alt</text><text fill="#000000" font-family="sans-serif" font-size="11" font-weight="bold" lengthAdjust="spacing" textLength="102" x="106" y="841.8564">[Item out of stock]</text><polygon fill="#181818" points="232.5,865.1406,222.5,869.1406,232.5,873.1406,228.5,869.1406" style="stroke:#181818;stroke-width:1.0;"/><line style="stroke:#181818;stroke-width:1.0;stroke-dasharray:2.0,2.0;" x1="226.5" x2="365.5" y1="869.1406" y2="869.1406"/><text fill="#000000" font-family="sans-serif" font-size="13" lengthAdjust="spacing" textLength="84" x="238.5" y="864.2842">Reject request</text><polygon fill="#181818" points="84.5,895.4922,74.5,899.4922,84.5,903.4922,80.5,899.4922" style="stroke:#181818;stroke-width:1.0;"/><line style="stroke:#181818;stroke-width:1.0;stroke-dasharray:2.0,2.0;" x1="78.5" x2="220.5" y1="899.4922" y2="899.4922"/><text fill="#000000" font-family="sans-serif" font-size="13" lengthAdjust="spacing" textLength="117" x="90.5" y="894.6357">Show "Out of stock"</text><line style="stroke:#000000;stroke-width:1.0;stroke-dasharray:2.0,2.0;" x1="30" x2="436" y1="908.4922" y2="908.4922"/><text fill="#000000" font-family="sans-serif" font-size="11" font-weight="bold" lengthAdjust="spacing" textLength="83" x="35" y="919.9111">[Item available]</text><polygon fill="#181818" points="232.5,941.6797,222.5,945.6797,232.5,949.6797,228.5,945.6797" style="stroke:#181818;stroke-width:1.0;"/><line style="stroke:#181818;stroke-width:1.0;stroke-dasharray:2.0,2.0;" x1="226.5" x2="365.5" y1="945.6797" y2="945.6797"/><text fill="#000000" font-family="sans-serif" font-size="13" lengthAdjust="spacing" textLength="64" x="238.5" y="940.8232">Item added</text><polygon fill="#181818" points="84.5,972.0313,74.5,976.0313,84.5,980.0313,80.5,976.0313" style="stroke:#181818;stroke-width:1.0;"/><line style="stroke:#181818;stroke-width:1.0;stroke-dasharray:2.0,2.0;" x1="78.5" x2="220.5" y1="976.0313" y2="976.0313"/><text fill="#000000" font-family="sans-serif" font-size="13" lengthAdjust="spacing" textLength="67" x="90.5" y="971.1748">Update cart</text><rect fill="#EEEEEE" height="3" style="stroke:#EEEEEE;stroke-width:1.0;" width="553.5" x="0" y="1012.207"/><line style="stroke:#000000;stroke-width:1.0;" x1="0" x2="553.5" y1="1012.207" y2="1012.207"/><line style="stroke:#000000;stroke-width:1.0;" x1="0" x2="553.5" y1="1015.207" y2="1015.207"/><rect fill="#EEEEEE" height="24.3516" style="stroke:#000000;stroke-width:2.0;" width="77" x="238.25" y="1001.0313"/><text fill="#000000" font-family="sans-serif" font-size="13" font-weight="bold" lengthAdjust="spacing" textLength="59" x="244.25" y="1018.5264">Checkout</text><polygon fill="#181818" points="209.5,1053.7344,219.5,1057.7344,209.5,1061.7344,213.5,1057.7344" style="stroke:#181818;stroke-width:1.0;"/><line style="stroke:#181818;stroke-width:1.0;" x1="73.5" x2="215.5" y1="1057.7344" y2="1057.7344"/><text fill="#000000" font-family="sans-serif" font-size="13" lengthAdjust="spacing" textLength="120" x="80.5" y="1052.8779">Proceed to checkout</text><polygon fill="#181818" points="354.5,1084.0859,364.5,1088.0859,354.5,1092.0859,358.5,1088.0859" style="stroke:#181818;stroke-width:1.0;"/><line style="stroke:#181818;stroke-width:1.0;" x1="221.5" x2="360.5" y1="1088.0859" y2="1088.0859"/><text fill="#000000" font-family="sans-serif" font-size="13" lengthAdjust="spacing" textLength="73" x="228.5" y="1083.2295">Validate cart</text><path d="M20,1103.0859 L81,1103.0859 L81,1111.4375 L71,1121.4375 L20,1121.4375 L20,1103.0859 " fill="#EEEEEE" style="stroke:#000000;stroke-width:1.5;"/><rect fill="none" height="446.5938" style="stroke:#000000;stroke-width:1.5;" width="513.5" x="20" y="1103.0859"/><text fill="#000000" font-family="sans-serif" font-size="13" font-weight="bold" lengthAdjust="spacing" textLength="16" x="35" y="1117.5811">alt</text><text fill="#000000" font-family="sans-serif" font-size="11" font-weight="bold" lengthAdjust="spacing" textLength="82" x="96" y="1116.5049">[Cart is empty]</text><polygon fill="#181818" points="232.5,1139.7891,222.5,1143.7891,232.5,1147.7891,228.5,1143.7891" style="stroke:#181818;stroke-width:1.0;"/><line style="stroke:#181818;stroke-width:1.0;stroke-dasharray:2.0,2.0;" x1="226.5" x2="365.5" y1="1143.7891" y2="1143.7891"/><text fill="#000000" font-family="sans-serif" font-size="13" lengthAdjust="spacing" textLength="91" x="238.5" y="1138.9326">Validation failed</text><polygon fill="#181818" points="84.5,1170.1406,74.5,1174.1406,84.5,1178.1406,80.5,1174.1406" style="stroke:#181818;stroke-width:1.0;"/><line style="stroke:#181818;stroke-width:1.0;stroke-dasharray:2.0,2.0;" x1="78.5" x2="220.5" y1="1174.1406" y2="1174.1406"/><text fill="#000000" font-family="sans-serif" font-size="13" lengthAdjust="spacing" textLength="124" x="90.5" y="1169.2842">Show "Cart is empty"</text><line style="stroke:#000000;stroke-width:1.0;stroke-dasharray:2.0,2.0;" x1="20" x2="533.5" y1="1183.1406" y2="1183.1406"/><text fill="#000000" font-family="sans-serif" font-size="11" font-weight="bold" lengthAdjust="spacing" textLength="59" x="25" y="1194.5596">[Cart valid]</text><polygon fill="#181818" points="232.5,1216.3281,222.5,1220.3281,232.5,1224.3281,228.5,1220.3281" style="stroke:#181818;stroke-width:1.0;"/><line style="stroke:#181818;stroke-width:1.0;stroke-dasharray:2.0,2.0;" x1="226.5" x2="365.5" y1="1220.3281" y2="1220.3281"/><text fill="#000000" font-family="sans-serif" font-size="13" lengthAdjust="spacing" textLength="53" x="238.5" y="1215.4717">Cart valid</text><polygon fill="#181818" points="209.5,1246.6797,219.5,1250.6797,209.5,1254.6797,213.5,1250.6797" style="stroke:#181818;stroke-width:1.0;"/><line style="stroke:#181818;stroke-width:1.0;" x1="73.5" x2="215.5" y1="1250.6797" y2="1250.6797"/><text fill="#000000" font-family="sans-serif" font-size="13" lengthAdjust="spacing" textLength="102" x="80.5" y="1245.8232">Enter delivery info</text><polygon fill="#181818" points="354.5,1277.0313,364.5,1281.0313,354.5,1285.0313,358.5,1281.0313" style="stroke:#181818;stroke-width:1.0;"/><line style="stroke:#181818;stroke-width:1.0;" x1="221.5" x2="360.5" y1="1281.0313" y2="1281.0313"/><text fill="#000000" font-family="sans-serif" font-size="13" lengthAdjust="spacing" textLength="74" x="228.5" y="1276.1748">Submit order</text><polygon fill="#181818" points="483.5,1307.3828,493.5,1311.3828,483.5,1315.3828,487.5,1311.3828" style="stroke:#181818;stroke-width:1.0;"/><line style="stroke:#181818;stroke-width:1.0;" x1="366.5" x2="489.5" y1="1311.3828" y2="1311.3828"/><text fill="#000000" font-family="sans-serif" font-size="13" lengthAdjust="spacing" textLength="61" x="373.5" y="1306.5264">Save order</text><path d="M30,1326.3828 L91,1326.3828 L91,1334.7344 L81,1344.7344 L30,1344.7344 L30,1326.3828 " fill="#EEEEEE" style="stroke:#000000;stroke-width:1.5;"/><rect fill="none" height="216.2969" style="stroke:#000000;stroke-width:1.5;" width="493.5" x="30" y="1326.3828"/><text fill="#000000" font-family="sans-serif" font-size="13" font-weight="bold" lengthAdjust="spacing" textLength="16" x="45" y="1340.8779">alt</text><text fill="#000000" font-family="sans-serif" font-size="11" font-weight="bold" lengthAdjust="spacing" textLength="102" x="106" y="1339.8018">[Order save failed]</text><polygon fill="#181818" points="377.5,1363.0859,367.5,1367.0859,377.5,1371.0859,373.5,1367.0859" style="stroke:#181818;stroke-width:1.0;"/><line style="stroke:#181818;stroke-width:1.0;stroke-dasharray:2.0,2.0;" x1="371.5" x2="494.5" y1="1367.0859" y2="1367.0859"/><text fill="#000000" font-family="sans-serif" font-size="13" lengthAdjust="spacing" textLength="58" x="383.5" y="1362.2295">Save error</text><polygon fill="#181818" points="232.5,1393.4375,222.5,1397.4375,232.5,1401.4375,228.5,1397.4375" style="stroke:#181818;stroke-width:1.0;"/><line style="stroke:#181818;stroke-width:1.0;stroke-dasharray:2.0,2.0;" x1="226.5" x2="365.5" y1="1397.4375" y2="1397.4375"/><text fill="#000000" font-family="sans-serif" font-size="13" lengthAdjust="spacing" textLength="66" x="238.5" y="1392.5811">Order failed</text><polygon fill="#181818" points="84.5,1423.7891,74.5,1427.7891,84.5,1431.7891,80.5,1427.7891" style="stroke:#181818;stroke-width:1.0;"/><line style="stroke:#181818;stroke-width:1.0;stroke-dasharray:2.0,2.0;" x1="78.5" x2="220.5" y1="1427.7891" y2="1427.7891"/><text fill="#000000" font-family="sans-serif" font-size="13" lengthAdjust="spacing" textLength="112" x="90.5" y="1422.9326">Show "Order failed"</text><line style="stroke:#000000;stroke-width:1.0;stroke-dasharray:2.0,2.0;" x1="30" x2="523.5" y1="1436.7891" y2="1436.7891"/><text fill="#000000" font-family="sans-serif" font-size="11" font-weight="bold" lengthAdjust="spacing" textLength="149" x="35" y="1448.208">[Order saved successfully]</text><polygon fill="#181818" points="377.5,1469.9766,367.5,1473.9766,377.5,1477.9766,373.5,1473.9766" style="stroke:#181818;stroke-width:1.0;"/><line style="stroke:#181818;stroke-width:1.0;stroke-dasharray:2.0,2.0;" x1="371.5" x2="494.5" y1="1473.9766" y2="1473.9766"/><text fill="#000000" font-family="sans-serif" font-size="13" lengthAdjust="spacing" textLength="72" x="383.5" y="1469.1201">Order stored</text><polygon fill="#181818" points="232.5,1500.3281,222.5,1504.3281,232.5,1508.3281,228.5,1504.3281" style="stroke:#181818;stroke-width:1.0;"/><line style="stroke:#181818;stroke-width:1.0;stroke-dasharray:2.0,2.0;" x1="226.5" x2="365.5" y1="1504.3281" y2="1504.3281"/><text fill="#000000" font-family="sans-serif" font-size="13" lengthAdjust="spacing" textLength="92" x="238.5" y="1499.4717">Order confirmed</text><polygon fill="#181818" points="84.5,1530.6797,74.5,1534.6797,84.5,1538.6797,80.5,1534.6797" style="stroke:#181818;stroke-width:1.0;"/><line style="stroke:#181818;stroke-width:1.0;stroke-dasharray:2.0,2.0;" x1="78.5" x2="220.5" y1="1534.6797" y2="1534.6797"/><text fill="#000000" font-family="sans-serif" font-size="13" lengthAdjust="spacing" textLength="106" x="90.5" y="1529.8232">Show confirmation</text><rect fill="#EEEEEE" height="3" style="stroke:#EEEEEE;stroke-width:1.0;" width="553.5" x="0" y="1577.8555"/><line style="stroke:#000000;stroke-width:1.0;" x1="0" x2="553.5" y1="1577.8555" y2="1577.8555"/><line style="stroke:#000000;stroke-width:1.0;" x1="0" x2="553.5" y1="1580.8555" y2="1580.8555"/><rect fill="#EEEEEE" height="24.3516" style="stroke:#000000;stroke-width:2.0;" width="113" x="220.25" y="1566.6797"/><text fill="#000000" font-family="sans-serif" font-size="13" font-weight="bold" lengthAdjust="spacing" textLength="95" x="226.25" y="1584.1748">Order Tracking</text><polygon fill="#181818" points="209.5,1619.3828,219.5,1623.3828,209.5,1627.3828,213.5,1623.3828" style="stroke:#181818;stroke-width:1.0;"/><line style="stroke:#181818;stroke-width:1.0;" x1="73.5" x2="215.5" y1="1623.3828" y2="1623.3828"/><text fill="#000000" font-family="sans-serif" font-size="13" lengthAdjust="spacing" textLength="101" x="80.5" y="1618.5264">View order status</text><polygon fill="#181818" points="354.5,1649.7344,364.5,1653.7344,354.5,1657.7344,358.5,1653.7344" style="stroke:#181818;stroke-width:1.0;"/><line style="stroke:#181818;stroke-width:1.0;" x1="221.5" x2="360.5" y1="1653.7344" y2="1653.7344"/><text fill="#000000" font-family="sans-serif" font-size="13" lengthAdjust="spacing" textLength="121" x="228.5" y="1648.8779">Request order status</text><polygon fill="#181818" points="483.5,1680.0859,493.5,1684.0859,483.5,1688.0859,487.5,1684.0859" style="stroke:#181818;stroke-width:1.0;"/><line style="stroke:#181818;stroke-width:1.0;" x1="366.5" x2="489.5" y1="1684.0859" y2="1684.0859"/><text fill="#000000" font-family="sans-serif" font-size="13" lengthAdjust="spacing" textLength="73" x="373.5" y="1679.2295">Fetch status</text><polygon fill="#181818" points="377.5,1710.4375,367.5,1714.4375,377.5,1718.4375,373.5,1714.4375" style="stroke:#181818;stroke-width:1.0;"/><line style="stroke:#181818;stroke-width:1.0;stroke-dasharray:2.0,2.0;" x1="371.5" x2="494.5" y1="1714.4375" y2="1714.4375"/><text fill="#000000" font-family="sans-serif" font-size="13" lengthAdjust="spacing" textLength="78" x="383.5" y="1709.5811">Return status</text><polygon fill="#181818" points="232.5,1740.7891,222.5,1744.7891,232.5,1748.7891,228.5,1744.7891" style="stroke:#181818;stroke-width:1.0;"/><line style="stroke:#181818;stroke-width:1.0;stroke-dasharray:2.0,2.0;" x1="226.5" x2="365.5" y1="1744.7891" y2="1744.7891"/><text fill="#000000" font-family="sans-serif" font-size="13" lengthAdjust="spacing" textLength="111" x="238.5" y="1739.9326">Return order status</text><polygon fill="#181818" points="84.5,1771.1406,74.5,1775.1406,84.5,1779.1406,80.5,1775.1406" style="stroke:#181818;stroke-width:1.0;"/><line style="stroke:#181818;stroke-width:1.0;stroke-dasharray:2.0,2.0;" x1="78.5" x2="220.5" y1="1775.1406" y2="1775.1406"/><text fill="#000000" font-family="sans-serif" font-size="13" lengthAdjust="spacing" textLength="83" x="90.5" y="1770.2842">Display status</text><!--SRC=[ZLN9ZXen4BttLvIupmz48XBD8esKoOmWS3TsDUtWjedj1l7tARkNwNKI3Y3vrVBUSxdmqYk4TUcyAT32qT7NJfa7FAJFOQKyMisyl2DyC9-x967S6zic93TclUJonhI7nSuQxL4BEBukW3dwwUCfuzS07vxEOn53qcqYc6TdvX0sQP8ibx0gVOwQigYlqR1S9adBx-Kx5OLliAK-5hX54IAPSWaT4vXk2Jo47ifSf0QBVqfqFg5pGZSfeIUc9BL4A4ahwL4UNlKz7FRg0Nqe_gKf-jD0mJpFfRvKcI4Wb6qe_OWDCoOLYWW6HWIst8bOJiQYjMHWWSwn2oQeIFZfdztZlLZanWh8JAd5J7jNSawLP_hlKKWgui6J6DHb4kF8yjIQ1_5uexFeTpWUUNwI-AZIckerkNrbSiGWt6PBhhPyXsHS1Kkw-B6yjpxKrRL7NrfT9Ij9LpajRIFTJR5dNzPAY21rJJCuBoi4XTOXabFaK5sBDxCK0-BOX5DJUZ0PK55-ZSXOmEzWUPFTXCnCn-AzKsyHe-E8n5xiJjF5pWed6rKXGjJZDztaU8kptmgbfzBQjSwHNuEUMQy-hE68qLHU1m_jQfzNRD5w5Uz0Ei3Yvf-JzEl4yEGxZ-WhgterErx5y_YY9njru1QVMJ025Qq- -mIfCzFZqwoQybn8kZ0hweqmcFm3eyrPeIqSx7WFH-02EX0xV1gnGjmPlP2keAhOH9tP6UiaBDgCwDqdCT4iawnKwZdBhqwWFuL1yp53RdGcRV5_9ElWE12V5El5rvtQglOlI_yjOJT_lRvCpPRvqisjiL7CQ9DriAuLzQeQP0uMsII3wLrM1mMnVm40]--></g></svg>